<?xml version="1.0" encoding="UTF-8"?>
<svg xmlns="http://www.w3.org/2000/svg" id="Layer_1" data-name="Layer 1" viewBox="0 0 24 24" width="512" height="512"><path d="M8.495,24c-2.27,0-4.402-.884-6.007-2.488S0,17.774,0,15.505C0,8.43,6.177,4.444,10.687,1.534L13,.042V4.146C17.231,2.047,21.09,.918,21.279,.863L23.895,.105l-.758,2.615c-.055,.189-1.184,4.048-3.283,8.279h4.157l-1.493,2.313c-2.747,4.256-6.897,10.687-14.022,10.687Zm1.505-18.406c-3.998,2.774-7,5.667-7,9.911,0,1.468,.571,2.848,1.609,3.886s2.418,1.609,3.886,1.609c4.255,0,7.237-3.103,9.958-7h-3.684l1.285-2.245c1.437-2.511,2.533-5.141,3.245-7.054-1.916,.713-4.549,1.811-7.055,3.244l-2.245,1.285v-3.637Zm-1,12.406c1.657,0,3-1.343,3-3s-1.343-3-3-3-3,1.343-3,3,1.343,3,3,3Z"/></svg>
